# xmcd CD database file
#
# Track frame offsets:
#	150
#	5362
#	22567
#	45607
#	67395
#	86410
#	109360
#	134270
#	156810
#	173820
#	198397
#
# Disc length: 2979 seconds
#
# Revision: 1
# Processed by: cddbd v1.5.2PL0 Copyright (c) Steve Scherf et al.
# Submitted via: CDex 1.70beta2
#
DISCID=890ba10b
DTITLE=緒方恵美 - Winter Bird
DYEAR=1995
DGENRE=Pop
TTITLE0=時間旅行～オーバーチェアー～
TTITLE1=素顔の君のままで
TTITLE2=空に溶けてゆきたい
TTITLE3=FAR AWAY〜みずいろの鳥〜
TTITLE4=瞳の中の小さな太陽
TTITLE5=永遠より永い未来へ
TTITLE6=たんぽぽ
TTITLE7=暖炉で
TTITLE8=Let's get winter
TTITLE9=未来を駆け抜ける車道
TTITLE10=時間旅行
EXTD=YEAR: 1995
EXTT0=
EXTT1=
EXTT2=
EXTT3=
EXTT4=
EXTT5=
EXTT6=
EXTT7=
EXTT8=
EXTT9=
EXTT10=
PLAYORDER=
